# xmcd
#
# Track frame offsets:
# 150
# 13322
# 26522
# 40661
# 52596
# 64460
# 80596
# 92832
# 103699
# 115641
# 127362
# 138154
# 153460
# 163807
# 177653
# 189325
# 208129
# 222189
#
# Disc length: 3116 seconds
#
#
# Revision: 0
# Processed by: cddbd v1.5.2PL0 Copyright (c) Steve Scherf et al.
# Submitted via: FreeRIP 2.951 
#
DISCID=020c2a12
DTITLE=Franny and The Fireballs - Veteranen
DYEAR=2002
DGENRE=Rock and Roll
TTITLE0=Shake Rattle and Roll
TTITLE1=Rama Lama Ding Dong
TTITLE2=(Ghost) Rider In The Sand
TTITLE3=Oh, Lonesome Me
TTITLE4=At The Hop
TTITLE5=City Of New Orleans
TTITLE6=Come Go With Me
TTITLE7=All I Have To Do Is Dream
TTITLE8=North To Alaska
TTITLE9=Da Doo Ron Ron
TTITLE10=Everybody Loves Somebody
TTITLE11=Lucille
TTITLE12=Honolulu Rock-A-Roll-A
TTITLE13=In The Still Of The Night
TTITLE14=Rip It Up
TTITLE15=Wandrin' Star
TTITLE16=Motorbiene
TTITLE17=Goodnight, Well It's Time To Go
EXTD=
EXTT0=
EXTT1=
EXTT2=
EXTT3=
EXTT4=
EXTT5=
EXTT6=
EXTT7=
EXTT8=
EXTT9=
EXTT10=
EXTT11=
EXTT12=
EXTT13=
EXTT14=
EXTT15=
EXTT16=
EXTT17=
PLAYORDER=
